<svg width="147" height="147" fill="none" xmlns="http://www.w3.org/2000/svg"><path d="M146.22 73.106C146.22 32.726 113.486 0 73.11 0 32.732 0 0 32.726 0 73.106c0 40.377 32.733 73.107 73.11 73.107 40.376 0 73.11-32.73 73.11-73.106Z" fill="#DA2824"/><path d="m67.852 20.161-44.75 77.493 5.262 9.122 39.488-68.379 28.95 50.143h10.53l-39.48-68.379Z" fill="#A21B21"/><path d="m67.852 20.161-44.75 77.493 5.262 9.122 39.488-68.379 28.95 50.143h10.53l-39.48-68.379Z" stroke="#DA2824" stroke-width=".686"/><path d="M44.158 97.653 73.109 47.51l-5.257-9.113-39.488 68.379h89.495l5.258-9.123h-78.96" fill="#7D1A1A"/><path d="M44.158 97.653 73.109 47.51l-5.257-9.113-39.488 68.379h89.495l5.258-9.123h-78.96Z" stroke="#DA2824" stroke-width=".686"/><path d="M78.374 20.161H67.852l39.48 68.38H49.418l-5.26 9.112h78.959L78.374 20.161Z" fill="#601B1A"/><path d="M78.374 20.161H67.852l39.48 68.38H49.418l-5.26 9.112h78.959L78.374 20.161Z" stroke="#DA2824" stroke-width=".686"/></svg>