<svg version="1" xmlns="http://www.w3.org/2000/svg" width="336" height="336" viewBox="0 0 252 252"><path d="M120.4 39.2C121.8 41.6 137 68 154.3 98l31.5 54.5-50.1.5-50.2.5-3.9 6.8c-2.1 3.7-3.7 7-3.4 7.2.3.3 30.2.4 66.6.3l66.1-.3-38.2-66.2L134.5 35h-16.6l2.5 4.2z"/><path d="M78.7 102.7L41 168.2l3.5 6.4c2 3.5 3.9 6.4 4.3 6.4.4 0 15.8-26.1 34.2-58 18.4-31.9 33.7-58 34-58 .3 0 11.8 19.6 25.5 43.5l25 43.5h7.8c4.2 0 7.7-.2 7.7-.5 0-.9-64.1-111.9-65.4-113.2-.8-.8-10.7 15.5-38.9 64.4z"/><path d="M84 124.6c-17.8 31-32.6 56.8-32.8 57.3-.3.8 22.9 1.1 75.7 1.1h76l4-6.8 3.9-6.7-67.8-.5-67.8-.5 25-43.2 25-43.3-3.6-6.5c-2-3.5-4-6.6-4.4-6.8-.4-.3-15.3 24.9-33.2 55.9z"/></svg>